Coordinates
version=1
nRows=13
nColumns=34
inDegrees=yes

Units are S.I. units (second, meters, Newtons, ...)
If the header above contains a line with 'inDegrees', this indicates whether rotational values are in degrees (yes) or radians (no).

endheader
time	pelvis_tilt	pelvis_list	pelvis_rotation	pelvis_tx	pelvis_ty	pelvis_tz	hip_flexion_r	hip_adduction_r	hip_rotation_r	knee_angle_r	ankle_angle_r	subtalar_angle_r	mtp_angle_r	hip_flexion_l	hip_adduction_l	hip_rotation_l	knee_angle_l	ankle_angle_l	subtalar_angle_l	mtp_angle_l	lumbar_extension	lumbar_bending	lumbar_rotation	arm_flex_r	arm_add_r	arm_rot_r	elbow_flex_r	pro_sup_r	arm_flex_l	arm_add_l	arm_rot_l	elbow_flex_l	pro_sup_l
      0.00000000	    -11.70620145	      5.00264345	    -19.18892669	     -1.72101537	      0.92202252	      0.53470675	     17.97800701	     -1.94672484	      7.73773032	      4.51979929	     -0.14249570	      3.04536830	      0.00000000	      3.88161903	     -6.60820671	    -17.34382426	      0.00000000	      2.88958704	     -7.63499001	      0.00000000	    -15.50265651	     22.57747672	      0.38269572	     -4.07813585	     -7.83963671	    -26.64434064	     41.24406327	     92.83099987	      9.28685271	    -10.84054174	      4.75229484	     38.37352938	     79.70518114
      0.01666670	    -16.29290068	      8.96070606	    -18.34795509	     -1.72410806	      0.90862933	      0.53443947	     23.24092166	     -3.77885526	      8.81064402	      3.98451065	      4.32191935	      8.64018160	      0.00000000	      9.71024163	     -2.94877311	    -22.11125612	      0.00000000	      6.99989251	     -1.21672582	      0.00000000	     -8.05662539	     21.29330458	     -1.89040185	     -4.00318650	     -8.22033104	    -28.65784043	     36.42889852	     92.74736789	      7.83199090	    -11.56855086	     -0.28095923	     35.65349144	     78.68354228
      0.03333330	    -17.89310203	     10.00862103	    -17.85567454	     -1.72724815	      0.90517300	      0.53526134	     24.21748002	     -4.35921965	      9.84149868	      2.15740362	      5.28751958	      8.49025376	      0.00000000	     11.83867796	     -2.72994924	    -25.07300505	      0.00000000	      7.71840000	      1.83208005	      0.00000000	     -5.73377209	     20.87865308	     -3.95934614	     -2.83893797	     -9.10007765	    -26.38521778	     33.92253878	     93.10354336	      6.96720249	    -12.13270291	     -5.07718171	     35.97367952	     78.26531236
      0.05000000	    -19.12083618	     10.27627243	    -16.72179995	     -1.72841273	      0.90436047	      0.53486358	     24.79972063	     -4.59880777	     10.16667667	      0.86773557	      5.73094010	      8.80855522	      0.00000000	     13.58461165	     -2.73932253	    -25.93580050	      0.00000000	      7.96449718	      3.82036662	      0.00000000	     -3.96230754	     21.20838484	     -5.38834429	     -2.97591894	     -9.30728271	    -26.48147004	     34.16542895	     92.91280598	      6.77607134	    -12.76627379	     -5.43682217	     35.92307234	     78.29291584
      0.06666670	    -19.75353992	     10.24488312	    -15.93070473	     -1.72675587	      0.90427571	      0.53465634	     24.81984779	     -4.70853511	     10.43511303	      0.08595712	      5.99131818	      8.75711212	      0.00000000	     14.57009715	     -2.80856934	    -26.98722780	      0.00000000	      7.98337604	      5.64384957	      0.00000000	     -2.89329605	     21.50204777	     -6.30785642	     -3.31160143	     -9.39146835	    -26.57690549	     34.38051006	     92.67597079	      6.39800879	    -12.87201102	     -5.54942465	     36.23484739	     78.33115024
      0.08333330	    -20.10468587	     10.25925077	    -15.38656135	     -1.72553711	      0.90511458	      0.53453390	     24.84815963	     -4.84934672	     10.73612556	      0.00000000	      6.27019910	      8.65731632	      0.00000000	     15.20785309	     -2.74798538	    -27.90662731	      0.00000000	      7.87535513	      7.26518659	      0.00000000	     -2.29297964	     21.55847478	     -7.02800956	     -3.60628023	     -9.30151174	    -26.70446627	     34.88849373	     92.33526660	      5.75467562	    -12.75402360	     -5.58188971	     36.77394372	     78.41054966
      0.10000000	    -20.23255263	     10.31195613	    -14.96763991	     -1.72671170	      0.90597288	      0.53418815	     24.80380699	     -5.05622515	     10.88919074	      0.00000000	      6.38495794	      8.46271217	      0.00000000	     15.60102496	     -2.57733757	    -28.61945419	      0.00000000	      7.70531531	      8.37139004	      0.00000000	     -2.12445534	     21.40287179	     -7.35388033	     -3.97828169	     -9.28909006	    -26.78926564	     35.65212839	     91.90266234	      5.13486420	    -12.52928149	     -5.66318335	     37.65321658	     78.56006630
      0.11666670	    -20.18894979	     10.25061867	    -14.67419789	     -1.72948164	      0.90625402	      0.53381533	     24.69604472	     -5.10819863	     10.93233865	      0.00000000	      6.40939388	      8.45154999	      0.00000000	     15.78102330	     -2.52374700	    -28.76768367	      0.00000000	      7.51719797	      8.41411895	      0.00000000	     -2.18557499	     21.14053164	     -7.46848775	     -4.00232941	     -9.35609043	    -26.78969649	     35.74874571	     91.87834912	      5.10708260	    -12.29578016	     -5.61412593	     37.71586443	     78.57725500
      0.13333330	    -20.25103861	     10.37456623	    -14.43053173	     -1.73127589	      0.90539060	      0.53370229	     24.81355679	     -5.27357859	     11.17848855	      0.00000000	      6.33105077	      8.10040518	      0.00000000	     16.09633031	     -2.34569094	    -29.44124691	      0.00000000	      7.14865169	      9.27142275	      0.00000000	     -2.06564986	     20.77962076	     -7.78639415	     -4.35896935	     -9.25650704	    -26.17689677	     37.98343287	     91.57657001	      4.55149621	    -12.27196298	     -5.56834625	     38.63601359	     78.84570675
      0.15000000	    -20.18012759	     10.28542511	    -14.33090155	     -1.73158647	      0.90474416	      0.53390824	     24.74857105	     -5.22757986	     11.17511234	      0.00000000	      6.31048429	      8.07643405	      0.00000000	     16.14308043	     -2.38980315	    -29.45715276	      0.00000000	      7.04153569	      9.31932929	      0.00000000	     -2.02867021	     20.46627215	     -7.76002433	     -4.19905230	     -9.39900799	    -26.15256384	     38.15847237	     91.56232750	      4.50153651	    -12.01848328	     -5.51483631	     38.67210487	     78.86413248
      0.16666670	    -19.97106534	     10.19812200	    -14.31581851	     -1.73121222	      0.90463423	      0.53448271	     24.50764911	     -5.20282397	     11.49781374	      0.00000000	      6.15459010	      7.57207131	      0.00000000	     15.97559053	     -2.41214878	    -29.88097785	      0.00000000	      6.78902398	      9.93575520	      0.00000000	     -2.32471607	     20.35126617	     -7.87229967	     -4.61459491	     -9.56125774	    -24.83349395	     40.79850128	     91.36621755	      4.00600319	    -11.73941912	     -5.73391097	     39.34347113	     79.18669060
      0.18333330	    -19.88837103	     10.09721384	    -14.32055344	     -1.73080126	      0.90533241	      0.53527105	     24.35759065	     -5.12767559	     11.48636743	      0.00000000	      6.14502623	      7.53326233	      0.00000000	     15.85969935	     -2.48770767	    -29.87401043	      0.00000000	      6.69410650	      9.99140748	      0.00000000	     -2.15620304	     20.14720469	     -7.77297084	     -4.58484956	     -9.75590939	    -24.80346546	     40.89334849	     91.34315351	      3.78166458	    -11.41375034	     -5.70719924	     39.35915089	     79.21686738
      0.20000000	    -19.89006856	      9.99531050	    -14.29216109	     -1.73035413	      0.90568988	      0.53601852	     24.27883402	     -5.03468904	     11.45295424	      0.00000000	      6.15022829	      7.50279278	      0.00000000	     15.81537533	     -2.58895002	    -29.87755981	      0.00000000	      6.65839720	     10.01189015	      0.00000000	     -2.09849057	     19.90599011	     -7.71212736	     -4.53916415	     -9.87064422	    -24.80768542	     40.94561493	     91.33750737	      3.64700257	    -11.27054326	     -5.69121295	     39.34246368	     79.22498423
